# xmcd CD database file
#
# Track frame offsets:
#	150
#	21720
#	46259
#	61908
#	83429
#	100835
#
# Disc length: 1629 seconds
#
# Revision: 0
# Processed by: cddbd v1.5.1PL2 Copyright (c) Steve Scherf et al.
# Submitted via: CDex 1.60beta1
#
DISCID=42065b06
DTITLE=Muster Vation - CICADA準備号
DYEAR=1900
DGENRE=サウンドトラック (一般)
TTITLE0=未完成の城
TTITLE1=みずいろ
TTITLE2=太陽
TTITLE3=Orange Pocket
TTITLE4=nikonensis 〜 追想
TTITLE5=CROSSING
EXTD=
EXTT0=
EXTT1=
EXTT2=
EXTT3=
EXTT4=
EXTT5=
PLAYORDER=
